<svg width="512mm" height="512mm" viewBox="0 0 512 512" xmlns="http://www.w3.org/2000/svg">
   <path d="M 0,-4.2415363e-6 H 15 V 512 H 0 Z"/>
   <path d="m -512,4.241504e-6 h 15 V 512 h -15 z" transform="rotate(-90)" />
   <path d="m 338.20535,193.16322 a 25,25 0 0 1 -25,25 25,25 0 0 1 -25,-25 25,25 0 0 1 25,-25 25,25 0 0 1 25,25 z"/>
   <path d="m 346.27792,288.56305 a 25,25 0 0 1 -25,25 25,25 0 0 1 -25,-25 25,25 0 0 1 25,-25 25,25 0 0 1 25,25 z"/>
   <path d="m 237.70377,238.26172 a 25,25 0 0 1 -25,25 25,25 0 0 1 -25,-25 25,25 0 0 1 25,-25 25,25 0 0 1 25,25 z"/>
   <path d="m 245.23578,340.3555 a 25,25 0 0 1 -25,25 25,25 0 0 1 -25,-25 25,25 0 0 1 25,-25 25,25 0 0 1 25,25 z"/>
   <g transform="matrix(0.23933818,0,0,0.23933818,25.141776,45.967351)">
      <path d="m 995.90625,168.65234 -11.10938,8.07032 -721.73828,524.37304 279.92188,861.5137 H 1448.8301 L 1728.752,701.0957 Z m 0,46.7168 688.41605,500.16406 -262.9532,809.2813 H 570.44141 L 307.49023,715.5332 Z"/>
      <path d="m 331.05732,567.4082 c 79.36759,25.78809 122.8524,111.13183 97.0643,190.49942 -25.7881,79.36759 -111.13184,122.85239 -190.49943,97.0643 C 158.25461,829.18382 114.7698,743.84008 140.5579,664.47249 166.34599,585.1049 251.68974,541.6201 331.05732,567.4082 Z"/>
      <path d="m 286.53711,539.87109 c -72.98077,-0.84108 -141.45924,45.45917 -165.15039,118.37305 -29.158353,89.74016 20.26571,186.74009 110.00586,215.89844 89.74015,29.15834 186.74204,-20.26571 215.90039,-110.00586 29.15835,-89.74016 -20.2657,-186.7401 -110.00586,-215.89844 -16.82628,-5.46719 -33.90828,-8.17309 -50.75,-8.36719 z m -0.64453,40.23438 c 12.89755,0.17514 25.99901,2.26932 38.93554,6.47265 68.99487,22.41779 106.54085,96.10475 84.12305,165.09961 -22.4178,68.99487 -96.10474,106.54084 -165.09961,84.12305 -68.99485,-22.4178 -106.54084,-96.10474 -84.12304,-165.09961 18.21445,-56.05832 70.27468,-91.35464 126.16406,-90.5957 z"/>
      <path d="m 436.84914,1456.627 c 49.05187,-67.5141 143.65613,-82.498 211.17023,-33.4461 67.51411,49.0519 82.49795,143.6561 33.44608,211.1702 -49.05187,67.5141 -143.65614,82.498 -211.17024,33.4461 -67.5141,-49.0519 -82.49794,-143.6561 -33.44607,-211.1702 z"/>
      <path d="m 565.2207,1374.3652 c -55.01348,-1.8419 -110.01564,22.7031 -144.67968,70.4141 -55.46247,76.3375 -38.43127,183.8637 37.90625,239.3262 76.33753,55.4625 183.8637,38.4312 239.32617,-37.9063 55.46246,-76.3375 38.43128,-183.8637 -37.90625,-239.3262 -28.62658,-20.7984 -61.6384,-31.4026 -94.64649,-32.5078 z m -1.50586,40.0821 c 25.20413,0.8771 50.44809,9.0505 72.45703,25.041 58.69056,42.6412 71.62751,124.3231 28.98633,183.0137 -42.64117,58.6905 -124.32509,71.6294 -183.01562,28.9882 -58.69055,-42.6412 -71.62751,-124.3251 -28.98633,-183.0156 26.65074,-36.6816 68.55172,-55.4892 110.55859,-54.0273 z"/>
      <path d="m 1315.2379,1630.7966 c -49.0519,-67.5141 -34.068,-162.1183 33.4461,-211.1702 67.5141,-49.0519 162.1183,-34.068 211.1702,33.4461 49.0519,67.5141 34.068,162.1183 -33.4461,211.1702 -67.5141,49.0519 -162.1183,34.068 -211.1702,-33.4461 z"/>
      <path d="m 1431.4824,1370.8105 c -33.0081,1.1052 -66.0199,11.7094 -94.6465,32.5079 -76.3375,55.4624 -93.3687,162.9886 -37.9062,239.3261 55.4625,76.3375 162.9886,93.3688 239.3262,37.9063 76.3375,-55.4625 93.3687,-162.9887 37.9062,-239.3262 -34.664,-47.7109 -89.6662,-72.2559 -144.6797,-70.4141 z m 1.5059,40.0821 c 42.0068,-1.4619 83.9078,17.3457 110.5586,54.0273 42.6412,58.6906 29.7042,140.3744 -28.9864,183.0156 -58.6905,42.6412 -140.3744,29.7043 -183.0156,-28.9863 -42.6412,-58.6905 -29.7022,-140.3744 28.9883,-183.0156 22.009,-15.9905 47.251,-24.1639 72.4551,-25.041 z"/>
      <path d="m 1752.3201,849.22069 c -79.3676,25.78809 -164.7113,-17.69672 -190.4994,-97.06431 -25.7881,-79.36759 17.6967,-164.71133 97.0643,-190.49942 79.3676,-25.78809 164.7113,17.69671 190.4994,97.0643 25.7881,79.36759 -17.6967,164.71133 -97.0643,190.49943 z"/>
      <path d="m 1703.4063,534.12109 c -16.8418,0.1941 -33.9238,2.89805 -50.75,8.36524 -89.7402,29.15834 -139.1643,126.15828 -110.0059,215.89844 29.1583,89.74014 126.1583,139.16419 215.8984,110.00585 89.7402,-29.15835 139.1642,-126.15828 110.0059,-215.89843 -23.6912,-72.91387 -92.1677,-119.21218 -165.1484,-118.3711 z m 0.6425,40.23243 c 55.8894,-0.75894 107.9496,34.53932 126.1641,90.59765 22.4178,68.99487 -15.1262,142.67986 -84.1211,165.09766 -68.9949,22.41779 -142.6818,-15.12622 -165.0996,-84.1211 -22.4178,-68.99486 15.1262,-142.68182 84.1211,-165.09961 12.9365,-4.20333 26.038,-6.29947 38.9355,-6.4746 z"/>
      <path d="m 1115.7675,279.09534 c -49.0518,67.5141 -143.65611,82.49794 -211.17021,33.44607 -67.5141,-49.05187 -82.49794,-143.65614 -33.44607,-211.17024 49.05187,-67.514098 143.65618,-82.497937 211.17028,-33.446066 67.5141,49.051876 82.4979,143.656136 33.446,211.170236 z"/>
      <path d="M 999.52344,19.109375 C 944.50995,17.267471 889.5078,41.812479 854.84375,89.523437 799.38128,165.86097 816.41247,273.38714 892.75,328.84961 c 76.33753,55.46247 183.8638,38.4313 239.3262,-37.90625 55.4625,-76.33753 38.4313,-183.8637 -37.9063,-239.326173 -28.6266,-20.798427 -61.6384,-31.40267 -94.64646,-32.507812 z m -1.50586,40.082031 c 25.20412,0.877138 50.44612,9.050577 72.45512,25.041016 58.6905,42.641178 71.6275,124.325088 28.9863,183.015628 -42.6411,58.69051 -124.32316,71.6275 -183.01369,28.98632 -58.69053,-42.64117 -71.6275,-124.32509 -28.98633,-183.01562 26.65074,-36.681579 68.55171,-55.48924 110.5586,-54.027344 z"/>
   </g>
</svg>
