<svg width="512mm" height="512mm" viewBox="0 0 512 512" xmlns="http://www.w3.org/2000/svg">
   <path d="M 0,-4.2415363e-6 H 14.999999 V 512 H 0 Z"/>
   <path d="M 0,-4.2415363e-6 H 14.999999 V 512 H 0 Z"/>
   <g transform="rotate(-90)">
      <path d="m -512,0 h 15 v 512 h -15 z"/>
      <path d="m -512,0 h 15 v 512 h -15 z"/>
   </g>
   <path d="M 409.57227,96.017578 113.08984,392.5 119.5,398.91016 415.98242,102.42773 Z"/>
   <path d="m 437.90166,74.098342 c 14.15175,14.151751 14.15175,37.122708 0,51.274458 -14.15176,14.15175 -37.12271,14.15175 -51.27447,0 -14.15175,-14.15175 -14.15175,-37.122707 0,-51.274458 14.15176,-14.151751 37.12271,-14.151751 51.27447,0 z"/>
   <path d="m 412.26367,58.679687 c -10.52743,0 -21.05406,3.999378 -29.05469,12 -16.00124,16.001248 -16.00124,42.110083 0,58.111333 16.00126,16.00124 42.11008,16.00124 58.11133,0 16.00125,-16.00125 16.00125,-42.110085 0,-58.111333 -8.00063,-8.000622 -18.5292,-12 -29.05664,-12 z m 0,9.609375 c 8.0339,0 16.06763,3.077402 22.21875,9.228516 12.30223,12.302226 12.30223,32.135272 0,44.437502 -12.30223,12.30223 -32.13526,12.30223 -44.4375,0 -12.30222,-12.30223 -12.30222,-32.135276 0,-44.437502 6.15112,-6.151114 14.18485,-9.228516 22.21875,-9.228516 z"/>
   <path d="m 141.4198,370.5802 c 14.15175,14.15176 14.15175,37.12271 0,51.27447 -14.15176,14.15175 -37.12271,14.15175 -51.274465,0 -14.151752,-14.15176 -14.151752,-37.12271 0,-51.27447 14.151755,-14.15175 37.122705,-14.15175 51.274465,0 z"/>
   <path d="m 115.7832,355.16016 c -10.52743,0 -21.056012,4.00133 -29.056638,12.00195 -16.001246,16.00125 -16.001246,42.11007 0,58.11133 16.001248,16.00124 42.110078,16.00124 58.111328,0 16.00124,-16.00126 16.00124,-42.11008 0,-58.11133 -8.00063,-8.00062 -18.52725,-12.00195 -29.05469,-12.00195 z m 0,9.61132 c 8.0339,0 16.06763,3.07545 22.21875,9.22657 12.30223,12.30223 12.30223,32.13526 0,44.4375 -12.30223,12.30222 -32.13527,12.30222 -44.437497,0 -12.302229,-12.30224 -12.302229,-32.13527 0,-44.4375 6.151116,-6.15112 14.184847,-9.22657 22.218747,-9.22657 z"/>
   <path d="m 198.0118,209.25305 a 35.224369,35.224369 0 0 1 -35.22437,35.22437 35.224369,35.224369 0 0 1 -35.22437,-35.22437 35.224369,35.224369 0 0 1 35.22437,-35.22437 35.224369,35.224369 0 0 1 35.22437,35.22437 z"/>
   <path d="m 162.78711,169.0293 c -22.15606,0 -40.22461,18.06855 -40.22461,40.22461 0,22.15606 18.06855,40.22265 40.22461,40.22265 22.15606,0 40.22461,-18.06659 40.22461,-40.22265 0,-22.15606 -18.06855,-40.22461 -40.22461,-40.22461 z m 0,10 c 16.75166,0 30.22461,13.47294 30.22461,30.22461 0,16.75166 -13.47295,30.22265 -30.22461,30.22265 -16.75167,0 -30.22461,-13.47099 -30.22461,-30.22265 0,-16.75167 13.47294,-30.22461 30.22461,-30.22461 z"/>
   <path d="m 410.7486,289.19629 a 35.224369,35.224369 0 0 1 -35.22437,35.22437 35.224369,35.224369 0 0 1 -35.22437,-35.22437 35.224369,35.224369 0 0 1 35.22437,-35.22437 35.224369,35.224369 0 0 1 35.22437,35.22437 z"/>
   <path d="m 375.52344,248.97266 c -22.15606,0 -40.22266,18.06854 -40.22266,40.22461 0,22.15606 18.0666,40.22265 40.22266,40.22265 22.15606,0 40.22461,-18.06659 40.22461,-40.22265 0,-22.15607 -18.06855,-40.22461 -40.22461,-40.22461 z m 0,10 c 16.75166,0 30.22461,13.47294 30.22461,30.22461 0,16.75166 -13.47295,30.22265 -30.22461,30.22265 -16.75167,0 -30.22266,-13.47099 -30.22266,-30.22265 0,-16.75167 13.47099,-30.22461 30.22266,-30.22461 z"/>
</svg>