<svg width="512mm" height="512mm" viewBox="0 0 512 512" xmlns="http://www.w3.org/2000/svg">
   <path d="M 0,-4.2415354e-6 H 15 V 512 H 0 Z"/>
   <path d="m -512,0 h 15 v 512 h -15 z" transform="rotate(-90)" />
   <path d="m 185.60352,78.390625 -90.775395,338.781245 7.246095,-1.9414 331.53515,-88.83399 -0.18945,-8.41406 L 237.24805,274.75195 194.01758,78.580078 Z m 3.77539,19.386719 40.59961,184.244136 184.24414,40.59961 -307.14453,82.30078 z"/>
   <path d="m 92.163719,443.84931 c -18.476477,-4.95076 -29.453866,-23.96418 -24.503101,-42.44065 4.950765,-18.47648 23.964178,-29.45387 42.440652,-24.50311 18.47648,4.95077 29.45387,23.96418 24.5031,42.44066 -4.95076,18.47648 -23.96417,29.45386 -42.440651,24.5031 z"/>
   <path d="m 103.46094,371.17187 c -18.208354,-1.07632 -35.365615,10.76124 -40.263674,29.04102 -5.597783,20.89117 6.880307,42.50183 27.771484,48.09961 20.89118,5.59778 42.49988,-6.87835 48.09766,-27.76953 5.59778,-20.89118 -6.87836,-42.50182 -27.76953,-48.09961 -2.6114,-0.69972 -5.23475,-1.11772 -7.83594,-1.27149 z m -0.57031,9.21485 c 1.99444,0.12134 4.0079,0.44445 6.01562,0.98242 16.06175,4.30374 25.53812,20.71951 21.23437,36.78125 -4.30373,16.06175 -20.7195,25.54006 -36.781245,21.23633 C 77.297635,435.08299 67.81931,418.6672 72.123047,402.60547 75.888818,388.55144 88.929476,379.5373 102.89063,380.38672 Z"/>
   <path d="m 155.83688,78.749062 c 0.42942,-19.123437 16.2984,-34.295394 35.42184,-33.865974 19.12344,0.429419 34.2954,16.298404 33.86598,35.421841 -0.42942,19.123437 -16.29841,34.295391 -35.42185,33.865971 -19.12343,-0.42942 -34.29539,-16.2984 -33.86597,-35.421838 z"/>
   <path d="m 191.36328,40.263672 c -21.62269,-0.485541 -39.66094,16.758174 -40.14648,38.380859 -0.48554,21.622689 16.76013,39.660939 38.38281,40.146489 21.62269,0.48554 39.65899,-16.76013 40.14453,-38.382817 0.48554,-21.622687 -16.75817,-39.658991 -38.38086,-40.144531 z m -0.20898,9.238281 c 16.62415,0.373297 29.72486,14.07507 29.35156,30.699219 -0.3733,16.624148 -14.07507,29.722908 -30.69922,29.349608 -16.62414,-0.3733 -29.72291,-14.073115 -29.34961,-30.697264 0.3733,-16.62415 14.07311,-29.724861 30.69727,-29.351563 z"/>
   <path d="m 209.59981,254.37407 c 13.52573,-13.52572 35.48052,-13.52572 49.00624,0 13.52572,13.52573 13.52572,35.48052 0,49.00624 -13.52572,13.52572 -35.48051,13.52572 -49.00624,0 -13.52572,-13.52572 -13.52572,-35.48051 0,-49.00624 z"/>
   <path d="m 234.10352,239.63672 c -10.06174,0 -20.12478,3.824 -27.77149,11.4707 -15.2934,15.29341 -15.2934,40.24566 0,55.53906 15.29341,15.2934 40.24762,15.29341 55.54102,0 15.2934,-15.2934 15.2934,-40.24565 0,-55.53906 -7.6467,-7.6467 -17.7078,-11.4707 -27.76953,-11.4707 z m 0,9.18555 c 7.6785,0 15.35732,2.93935 21.23632,8.81835 11.75802,11.75803 11.75802,30.71465 0,42.47266 -11.75801,11.75801 -30.71463,11.75801 -42.47265,0 -11.75801,-11.75801 -11.75802,-30.71463 0,-42.47266 5.87901,-5.879 13.55782,-8.81835 21.23633,-8.81835 z"/>
   <path d="m 431.72619,288.26106 c 19.12343,-0.42942 34.99242,14.74254 35.42184,33.86598 0.42942,19.12343 -14.74254,34.99242 -33.86598,35.42184 -19.12344,0.42942 -34.99242,-14.74254 -35.42184,-33.86598 -0.42942,-19.12344 14.74254,-34.99242 33.86598,-35.42184 z"/>
   <path d="m 431.62305,283.64258 c -21.62269,0.48554 -38.86836,18.52184 -38.38282,40.14453 0.48555,21.62269 18.5238,38.8664 40.14649,38.38086 21.62269,-0.48554 38.8664,-18.52185 38.38086,-40.14453 -0.48554,-21.62269 -18.52185,-38.8664 -40.14453,-38.38086 z m 0.20703,9.23828 c 16.62414,-0.3733 30.32592,12.72546 30.69922,29.34961 0.37329,16.62414 -12.72741,30.32592 -29.35157,30.69922 -16.62415,0.3733 -30.32592,-12.72546 -30.69921,-29.34961 -0.3733,-16.62415 12.7274,-30.32592 29.35156,-30.69922 z"/>
   <path d="m 133.75556,402.25747 c 4.95076,18.47648 -6.02663,37.48989 -24.5031,42.44065 -18.476479,4.95077 -37.489891,-6.02662 -42.440656,-24.5031 -4.950764,-18.47648 6.026626,-37.48989 24.503103,-42.44065 18.476473,-4.95077 37.489893,6.02662 42.440653,24.5031 z"/>
   <path d="m 97.955078,372.02148 c -2.601193,0.15377 -5.224541,0.56981 -7.835937,1.26954 -20.891176,5.59777 -33.367313,27.20843 -27.769532,48.0996 5.597783,20.89118 27.208433,33.36732 48.099611,27.76954 20.89117,-5.59778 33.36731,-27.20648 27.76953,-48.09766 -4.89805,-18.27978 -22.05532,-30.11734 -40.263672,-29.04102 z m 0.570313,9.21289 c 13.961149,-0.84942 27.001809,8.16473 30.767579,22.21875 4.30373,16.06175 -5.1746,32.47752 -21.23633,36.78125 C 91.994897,444.53812 75.579129,435.06175 71.275391,419 c -4.303737,-16.06175 5.174586,-32.47947 21.236328,-36.7832 2.007717,-0.53797 4.019222,-0.86108 6.013672,-0.98243 z"/>
</svg>