<svg width="512mm" height="512mm" viewBox="0 0 512 512" xmlns="http://www.w3.org/2000/svg">
   <path d="M 0,-4.2415363e-6 H 15 V 512 H 0 Z"/>
   <path transform="rotate(90)" d="m 497,-512 h 15 V 0 h -15 z"/>
   <path d="m 217.93755,189.52506 a 40,40 0 0 1 -40,40 40,40 0 0 1 -40,-40 40,40 0 0 1 40,-40 40,40 0 0 1 40,40 z"/>
   <path d="m 392.93755,104.52503 a 40,40 0 0 1 -40,40.00003 40,40 0 0 1 -40,-40.00003 40,40 0 0 1 40,-40.000024 40,40 0 0 1 40,40.000024 z"/>
   <path d="m 187.93755,384.52506 a 40,40 0 0 1 -40,40 40,40 0 0 1 -40,-40 40,40 0 0 1 40,-40 40,40 0 0 1 40,40 z"/>
   <path d="m 362.93755,299.52506 a 40,40 0 0 1 -40,40 40,40 0 0 1 -40,-40 40,40 0 0 1 40,-40 40,40 0 0 1 40,40 z"/>
</svg>
