<?xml version="1.0" encoding="UTF-8" standalone="no"?>
<!-- Created with Inkscape (http://www.inkscape.org/) -->

<svg width="512mm" height="512mm" viewBox="0 0 512 512" xmlns="http://www.w3.org/2000/svg">
    <path d="M 0,-4.2415354e-6 H 15 V 512 H 0 Z"/>
    <path d="m -512,4.2415345e-6 h 15 V 512 h -15 z" transform="rotate(-90)" />
   <g transform="matrix(0.18872116,0,0,0.18872116,75.551548,117.34054)">
      <path d="M 995.90625,-52.988281 972.96094,-13.248047 136.63477,1435.3125 H 1855.1758 Z m 0,105.974609 L 1763.3984,1382.3242 H 228.41406 Z"/>
      <path d="m 1099.7624,-179.88544 c 101.3232,58.49897 136.0791,188.2097218 77.5801,289.53292 -58.499,101.32319 -188.2097,136.07908 -289.53289,77.5801 C 786.48641,128.7286 751.73052,-0.98214346 810.2295,-102.30534 c 58.49898,-101.32319 188.20972,-136.07908 289.5329,-77.5801 z"/>
      <path d="m 988.73437,-236.36133 c -81.15853,1.88621 -159.57135,44.74239 -202.97851,119.92578 -66.14424,114.5651766 -26.64135,261.99248 87.92383,328.13672 114.56516,66.14424 261.99241,26.64133 328.13671,-87.92383 66.1443,-114.5651726 26.6414,-261.99249 -87.9238,-328.13671 -39.3818,-22.73709 -82.6466,-32.98997 -125.15823,-32.00196 z m 9.91211,56.26953 c 29.60012,0.79384 59.46102,8.78794 86.98632,24.67969 88.081,50.85359 118.09,162.8486708 67.2363,250.929688 C 1102.0155,183.5986 990.02047,213.60751 901.93945,162.75391 813.85843,111.9003 783.84952,-0.09476425 834.70312,-88.175781 869.66498,-148.73148 933.52616,-181.83825 998.64648,-180.0918 Z"/>
      <path d="m 78.666618,1228.9335 c 101.323192,-58.499 231.033942,-23.7431 289.532912,77.5801 58.49898,101.3232 23.74308,231.034 -77.58011,289.5329 -101.3232,58.499 -231.033944,23.7431 -289.5329164,-77.5801 C -57.412469,1417.1432 -22.656578,1287.4325 78.666618,1228.9335 Z"/>
      <path d="m 189.69531,1172.457 c -42.51162,-0.988 -85.77642,9.2649 -125.158201,32.002 -114.565162,66.1442 -154.07001,213.5715 -87.925781,328.1367 66.144231,114.5652 213.573492,154.07 328.138672,87.9258 114.56519,-66.1442 154.06807,-213.5735 87.92383,-328.1387 -43.40715,-75.1834 -121.81997,-118.0396 -202.97852,-119.9258 z m -9.91211,56.2696 c 65.12033,-1.7465 128.97956,31.3622 163.94141,91.9179 50.8536,88.081 20.84466,200.0742 -67.23633,250.9278 -88.08102,50.8536 -200.074136,20.8447 -250.927733,-67.2364 -50.853599,-88.081 -20.8446992,-200.0741 67.236328,-250.9277 27.525315,-15.8918 57.386185,-23.8878 86.986325,-24.6816 z"/>
      <path d="m 1705.4306,1588.7043 c -101.3232,-58.499 -136.0791,-188.2097 -77.5801,-289.5329 58.499,-101.3232 188.2097,-136.0791 289.5329,-77.5801 101.3232,58.4989 136.0791,188.2097 77.5801,289.5329 -58.4989,101.3232 -188.2097,136.0791 -289.5329,77.5801 z"/>
      <path d="m 1806.3555,1165.1152 c -81.1586,1.8862 -159.5714,44.7424 -202.9785,119.9258 -66.1443,114.5652 -26.6414,261.9925 87.9238,328.1367 114.5652,66.1443 261.9925,26.6414 328.1367,-87.9238 66.1443,-114.5652 26.6414,-261.9926 -87.9238,-328.1367 -39.3818,-22.7371 -82.6466,-32.99 -125.1582,-32.002 z m 9.9121,56.2696 c 29.6001,0.7938 59.461,8.7898 86.9863,24.6816 88.081,50.8535 118.09,162.8467 67.2363,250.9277 -50.8535,88.081 -162.8486,118.09 -250.9297,67.2364 -88.081,-50.8537 -118.0899,-162.8487 -67.2363,-250.9297 34.9619,-60.5557 98.8231,-93.6625 163.9434,-91.916 z"/>
      <path d="M 1099.7624,179.88532 C 998.43921,238.3843 868.72847,203.6284 810.2295,102.30521 751.73052,0.98200969 786.48642,-128.72874 887.80961,-187.22771 c 101.3232,-58.49897 231.03399,-23.74308 289.53289,77.58012 58.499,101.3231976 23.7431,231.03394 -77.5801,289.53291 z"/>
      <path d="m 998.83789,-243.70508 c -42.51162,-0.98802 -85.77642,9.26683 -125.1582,32.00391 -114.56517,66.14423 -154.06807,213.5715385 -87.92383,328.13672 66.14423,114.56516 213.57155,154.06807 328.13674,87.92382 114.5652,-66.14422 154.0681,-213.5715386 87.9238,-328.13671 -43.4071,-75.18342 -121.82,-118.04152 -202.97851,-119.92774 z m -9.91211,56.27149 c 65.12032,-1.74645 128.98152,31.36032 163.94332,91.916012 50.8537,88.0810172 20.8447,200.074138 -67.2363,250.927738 -88.081,50.8536 -200.07608,20.84663 -250.92968,-67.234379 -50.8536,-88.08101933 -20.84468,-200.076091 67.23633,-250.929691 27.52532,-15.89174 57.38618,-23.88584 86.98633,-24.67968 z"/>
  </g>
</svg>
