<svg width="512mm" height="512mm" viewBox="0 0 512 512" xmlns="http://www.w3.org/2000/svg">
   <path d="M 0,-4.2415281e-6 H 15 V 512 H 0 Z"/>
   <path d="m 497,-512 h 15 V 0 h -15 z" transform="rotate(90)"/>
   <path d="m 407.15234,98.773437 -58.03711,229.248043 -192,-161.99804 -61.962886,244.75 9.695316,2.45312 58.03711,-229.24804 192,161.99804 61.96289,-244.75 z"/>
   <path d="m 421.62054,61.998878 c 21.40471,5.418915 34.37869,27.188816 28.95978,48.593532 -5.41892,21.40471 -27.18882,34.37869 -48.59353,28.95978 -21.40472,-5.41892 -34.3787,-27.18882 -28.95978,-48.593532 5.41891,-21.404713 27.18881,-34.378695 48.59353,-28.95978 z" />
   <path d="m 413.86523,55.486328 c -21.03333,-0.951311 -40.64659,12.987222 -46.00781,34.164063 -6.12712,24.202099 8.61821,48.945149 32.82031,55.072269 24.2021,6.12711 48.94515,-8.62017 55.07227,-32.82227 6.12711,-24.202104 -8.61821,-48.94515 -32.82031,-55.072265 -3.02527,-0.765889 -6.05969,-1.205895 -9.06446,-1.341797 z m -0.51171,10.646484 c 2.30393,0.108186 4.63307,0.448272 6.95898,1.03711 18.60728,4.710704 29.80836,23.505997 25.09766,42.113278 -4.71071,18.60728 -23.50796,29.81031 -42.11524,25.09961 -18.60729,-4.71071 -29.80836,-23.50795 -25.09765,-42.115232 4.12186,-16.281369 19.02867,-26.892064 35.15625,-26.134766 z"/>
   <path d="m 389.31958,325.00462 c 6.75658,21.02082 -4.82019,43.5648 -25.84102,50.32138 -21.02082,6.75659 -43.5648,-4.82019 -50.32138,-25.84101 -6.75659,-21.02082 4.82019,-43.5648 25.84101,-50.32139 21.02082,-6.75658 43.5648,4.82019 50.32139,25.84102 z"/>
   <path d="m 355.23047,292.09766 c -5.86393,-0.53062 -11.92323,0.0784 -17.86524,1.98828 -23.76803,7.63961 -36.92476,33.26321 -29.28515,57.03125 7.6396,23.76804 33.26321,36.92672 57.03125,29.28711 23.76805,-7.6396 36.92475,-33.26321 29.28515,-57.03125 -5.7297,-17.82604 -21.57424,-29.68353 -39.16601,-31.27539 z m -0.90235,10.5957 c 13.45894,1.18991 25.5089,10.23818 29.91407,23.94336 5.87354,18.27356 -4.12292,37.73778 -22.39649,43.61133 -18.27355,5.87355 -37.73778,-4.12098 -43.61133,-22.39453 -5.87355,-18.27356 4.12293,-37.73973 22.39649,-43.61329 4.56839,-1.46838 9.21095,-1.94351 13.69726,-1.54687 z"/>
   <path d="m 197.31958,163.00462 c 6.75658,21.02082 -4.82019,43.5648 -25.84102,50.32138 -21.02082,6.75659 -43.5648,-4.82019 -50.32138,-25.84101 -6.75659,-21.02082 4.82019,-43.5648 25.84101,-50.32139 21.02082,-6.75658 43.5648,4.82019 50.32139,25.84102 z"/>
   <path d="m 163.23047,130.09766 c -5.86393,-0.53062 -11.92323,0.0784 -17.86524,1.98828 -23.76803,7.63961 -36.92476,33.26321 -29.28515,57.03125 7.6396,23.76804 33.26321,36.92672 57.03125,29.28711 23.76805,-7.6396 36.92475,-33.26321 29.28515,-57.03125 -5.7297,-17.82604 -21.57424,-29.68353 -39.16601,-31.27539 z m -0.90235,10.5957 c 13.45894,1.18991 25.5089,10.23818 29.91407,23.94336 5.87354,18.27356 -4.12292,37.73778 -22.39649,43.61133 -18.27355,5.87355 -37.73778,-4.12098 -43.61132,-22.39453 -5.87356,-18.27356 4.12292,-37.73973 22.39648,-43.61329 4.56839,-1.46838 9.21095,-1.94351 13.69726,-1.54687 z"/>
   <path d="m 109.62054,373.99888 c 21.40471,5.41891 34.37869,27.18881 28.95978,48.59353 -5.41892,21.40471 -27.18882,34.37869 -48.593532,28.95978 -21.404714,-5.41892 -34.378695,-27.18882 -28.95978,-48.59353 5.418914,-21.40472 27.188816,-34.3787 48.593532,-28.95978 z"/>
   <path d="m 101.86523,367.48633 c -21.033325,-0.95132 -40.646584,12.98721 -46.007808,34.16406 -6.127115,24.2021 8.61821,48.94515 32.820312,55.07227 24.202106,6.12711 48.945146,-8.62017 55.072266,-32.82227 6.12711,-24.20211 -8.61821,-48.94516 -32.82031,-55.07227 -3.02527,-0.76589 -6.05969,-1.20589 -9.06446,-1.34179 z m -0.51171,10.64648 c 2.30393,0.10819 4.63307,0.44827 6.95898,1.03711 18.60728,4.7107 29.80836,23.50599 25.09766,42.11328 -4.71071,18.60728 -23.50796,29.81031 -42.115238,25.09961 -18.607283,-4.71071 -29.80836,-23.50796 -25.097656,-42.11523 4.121865,-16.28138 19.028678,-26.89207 35.156254,-26.13477 z"/>
</svg>
